<svg width="35" height="35" viewBox="0 0 35 35" fill="none" xmlns="http://www.w3.org/2000/svg">
<path d="M3.71875 17.2812C3.83366 17.3674 3.96441 17.4301 4.10355 17.4657C4.24269 17.5014 4.38749 17.5093 4.52968 17.489C4.67187 17.4687 4.80867 17.4205 4.93226 17.3474C5.05585 17.2742 5.16382 17.1774 5.25 17.0625C5.91222 16.1795 6.77092 15.4629 7.75809 14.9693C8.74527 14.4757 9.8338 14.2187 10.9375 14.2187C12.0412 14.2187 13.1297 14.4757 14.1169 14.9693C15.1041 15.4629 15.9628 16.1795 16.625 17.0625C16.7993 17.2943 17.0585 17.4475 17.3456 17.4882C17.6328 17.529 17.9244 17.454 18.1562 17.2799C18.2389 17.2184 18.3122 17.1451 18.3736 17.0625C19.0359 16.1795 19.8945 15.4629 20.8817 14.9693C21.8689 14.4757 22.9574 14.2187 24.0611 14.2187C25.1648 14.2187 26.2534 14.4757 27.2405 14.9693C28.2277 15.4629 29.0864 16.1795 29.7486 17.0625C29.9229 17.2945 30.1821 17.4479 30.4694 17.4888C30.7567 17.5297 31.0485 17.4548 31.2806 17.2805C31.5126 17.1063 31.666 16.847 31.7069 16.5597C31.7478 16.2724 31.6729 15.9807 31.4986 15.7486C30.5305 14.4507 29.2395 13.4288 27.7539 12.7845C28.5683 12.041 29.1389 11.0686 29.3908 9.99493C29.6427 8.92128 29.5641 7.79657 29.1653 6.7684C28.7666 5.74022 28.0663 4.85662 27.1563 4.23356C26.2464 3.61051 25.1694 3.2771 24.0666 3.2771C22.9638 3.2771 21.8868 3.61051 20.9769 4.23356C20.0669 4.85662 19.3666 5.74022 18.9679 6.7684C18.5691 7.79657 18.4905 8.92128 18.7424 9.99493C18.9943 11.0686 19.5649 12.041 20.3793 12.7845C19.3067 13.2484 18.3322 13.9124 17.5082 14.741C16.6842 13.9124 15.7097 13.2484 14.6371 12.7845C15.4515 12.041 16.0221 11.0686 16.274 9.99493C16.5259 8.92128 16.4473 7.79657 16.0485 6.7684C15.6498 5.74022 14.9495 4.85662 14.0395 4.23356C13.1296 3.61051 12.0526 3.2771 10.9498 3.2771C9.84701 3.2771 8.76998 3.61051 7.86006 4.23356C6.95014 4.85662 6.24985 5.74022 5.85109 6.7684C5.45233 7.79657 5.37373 8.92128 5.62561 9.99493C5.87749 11.0686 6.44808 12.041 7.2625 12.7845C5.77042 13.4267 4.47303 14.4492 3.5 15.75C3.41382 15.8649 3.35112 15.9956 3.31547 16.1348C3.27982 16.2739 3.27193 16.4187 3.29224 16.5609C3.31256 16.7031 3.36068 16.8399 3.43386 16.9635C3.50704 17.0871 3.60384 17.195 3.71875 17.2812ZM24.0625 5.46872C24.7115 5.46872 25.3459 5.66116 25.8855 6.02171C26.4251 6.38226 26.8456 6.89472 27.094 7.49429C27.3423 8.09386 27.4073 8.75361 27.2807 9.39011C27.1541 10.0266 26.8416 10.6113 26.3827 11.0702C25.9238 11.5291 25.3391 11.8416 24.7026 11.9682C24.0661 12.0948 23.4064 12.0298 22.8068 11.7814C22.2073 11.5331 21.6948 11.1125 21.3342 10.5729C20.9737 10.0333 20.7812 9.39894 20.7812 8.74997C20.7812 7.87973 21.127 7.04513 21.7423 6.42977C22.3577 5.81442 23.1923 5.46872 24.0625 5.46872ZM10.9375 5.46872C11.5865 5.46872 12.2209 5.66116 12.7605 6.02171C13.3001 6.38226 13.7206 6.89472 13.969 7.49429C14.2173 8.09386 14.2823 8.75361 14.1557 9.39011C14.0291 10.0266 13.7166 10.6113 13.2577 11.0702C12.7988 11.5291 12.2141 11.8416 11.5776 11.9682C10.9411 12.0948 10.2814 12.0298 9.68182 11.7814C9.08225 11.5331 8.56979 11.1125 8.20924 10.5729C7.84869 10.0333 7.65625 9.39894 7.65625 8.74997C7.65625 7.87973 8.00195 7.04513 8.61731 6.42977C9.23266 5.81442 10.0673 5.46872 10.9375 5.46872ZM27.7539 27.0033C28.5683 26.2597 29.1389 25.2873 29.3908 24.2137C29.6427 23.14 29.5641 22.0153 29.1653 20.9871C28.7666 19.959 28.0663 19.0754 27.1563 18.4523C26.2464 17.8293 25.1694 17.4958 24.0666 17.4958C22.9638 17.4958 21.8868 17.8293 20.9769 18.4523C20.0669 19.0754 19.3666 19.959 18.9679 20.9871C18.5691 22.0153 18.4905 23.14 18.7424 24.2137C18.9943 25.2873 19.5649 26.2597 20.3793 27.0033C19.3067 27.4671 18.3322 28.1311 17.5082 28.9597C16.6842 28.1311 15.7097 27.4671 14.6371 27.0033C15.4515 26.2597 16.0221 25.2873 16.274 24.2137C16.5259 23.14 16.4473 22.0153 16.0485 20.9871C15.6498 19.959 14.9495 19.0754 14.0395 18.4523C13.1296 17.8293 12.0526 17.4958 10.9498 17.4958C9.84701 17.4958 8.76998 17.8293 7.86006 18.4523C6.95014 19.0754 6.24985 19.959 5.85109 20.9871C5.45233 22.0153 5.37373 23.14 5.62561 24.2137C5.87749 25.2873 6.44808 26.2597 7.2625 27.0033C5.77042 27.6454 4.47303 28.668 3.5 29.9687C3.41382 30.0836 3.35112 30.2144 3.31547 30.3535C3.27982 30.4927 3.27193 30.6375 3.29224 30.7796C3.31256 30.9218 3.36068 31.0586 3.43386 31.1822C3.50704 31.3058 3.60384 31.4138 3.71875 31.5C3.83366 31.5861 3.96441 31.6489 4.10355 31.6845C4.24269 31.7201 4.38749 31.728 4.52968 31.7077C4.67187 31.6874 4.80867 31.6393 4.93226 31.5661C5.05585 31.4929 5.16382 31.3961 5.25 31.2812C5.91222 30.3983 6.77092 29.6816 7.75809 29.188C8.74527 28.6944 9.8338 28.4375 10.9375 28.4375C12.0412 28.4375 13.1297 28.6944 14.1169 29.188C15.1041 29.6816 15.9628 30.3983 16.625 31.2812C16.7993 31.5131 17.0585 31.6662 17.3456 31.707C17.6328 31.7478 17.9244 31.6728 18.1562 31.4986C18.2389 31.4371 18.3122 31.3639 18.3736 31.2812C19.0359 30.3983 19.8945 29.6816 20.8817 29.188C21.8689 28.6944 22.9574 28.4375 24.0611 28.4375C25.1648 28.4375 26.2534 28.6944 27.2405 29.188C28.2277 29.6816 29.0864 30.3983 29.7486 31.2812C29.9229 31.5133 30.1821 31.6666 30.4694 31.7075C30.7567 31.7484 31.0485 31.6735 31.2806 31.4993C31.5126 31.3251 31.666 31.0658 31.7069 30.7785C31.7478 30.4912 31.6729 30.1994 31.4986 29.9674C30.5305 28.6694 29.2395 27.6475 27.7539 27.0033ZM10.9375 19.6875C11.5865 19.6875 12.2209 19.8799 12.7605 20.2405C13.3001 20.601 13.7206 21.1135 13.969 21.713C14.2173 22.3126 14.2823 22.9724 14.1557 23.6089C14.0291 24.2454 13.7166 24.83 13.2577 25.2889C12.7988 25.7478 12.2141 26.0603 11.5776 26.1869C10.9411 26.3135 10.2814 26.2485 9.68182 26.0002C9.08225 25.7518 8.56979 25.3313 8.20924 24.7917C7.84869 24.2521 7.65625 23.6177 7.65625 22.9687C7.65625 22.0985 8.00195 21.2639 8.61731 20.6485C9.23266 20.0332 10.0673 19.6875 10.9375 19.6875ZM24.0625 19.6875C24.7115 19.6875 25.3459 19.8799 25.8855 20.2405C26.4251 20.601 26.8456 21.1135 27.094 21.713C27.3423 22.3126 27.4073 22.9724 27.2807 23.6089C27.1541 24.2454 26.8416 24.83 26.3827 25.2889C25.9238 25.7478 25.3391 26.0603 24.7026 26.1869C24.0661 26.3135 23.4064 26.2485 22.8068 26.0002C22.2073 25.7518 21.6948 25.3313 21.3342 24.7917C20.9737 24.2521 20.7812 23.6177 20.7812 22.9687C20.7812 22.0985 21.127 21.2639 21.7423 20.6485C22.3577 20.0332 23.1923 19.6875 24.0625 19.6875Z" fill="#343330"/>
</svg>
