<svg width="35" height="35" viewBox="0 0 35 35" fill="none" xmlns="http://www.w3.org/2000/svg">
<path fill-rule="evenodd" clip-rule="evenodd" d="M17.9583 2.91663V11.125L17.9583 11.1794C17.9582 11.6034 17.9581 12.0156 18.0038 12.3555C18.0554 12.7387 18.1809 13.176 18.5441 13.5392C18.9073 13.9024 19.3446 14.0279 19.7278 14.0794C20.0677 14.1251 20.4798 14.125 20.9039 14.125L20.9583 14.125H29.1666V23.3333C29.1666 27.4581 29.1666 29.5205 27.8852 30.8019C26.6038 32.0833 24.5414 32.0833 20.4166 32.0833H14.5833C10.4585 32.0833 8.39613 32.0833 7.11472 30.8019C5.83331 29.5205 5.83331 27.4581 5.83331 23.3333V11.6666C5.83331 7.54184 5.83331 5.47944 7.11472 4.19803C8.39613 2.91663 10.4585 2.91663 14.5833 2.91663H17.9583ZM19.9583 2.91738V11.125C19.9583 11.6246 19.9604 11.8988 19.986 12.089L19.987 12.0963L19.9943 12.0973C20.1845 12.1228 20.4586 12.125 20.9583 12.125H29.1659C29.1616 11.2543 29.1332 10.7556 28.9446 10.3003C28.7226 9.76426 28.3011 9.34276 27.4581 8.49976L27.4581 8.49975L23.5835 4.62517C22.7405 3.78216 22.319 3.36066 21.783 3.13864C21.3277 2.95004 20.829 2.92165 19.9583 2.91738ZM12.125 18.9583C12.125 18.406 12.5727 17.9583 13.125 17.9583L21.875 17.9583C22.4273 17.9583 22.875 18.406 22.875 18.9583C22.875 19.5106 22.4273 19.9583 21.875 19.9583H13.125C12.5727 19.9583 12.125 19.5106 12.125 18.9583ZM13.125 23.7916C12.5727 23.7916 12.125 24.2393 12.125 24.7916C12.125 25.3439 12.5727 25.7916 13.125 25.7916H18.9583C19.5106 25.7916 19.9583 25.3439 19.9583 24.7916C19.9583 24.2393 19.5106 23.7916 18.9583 23.7916H13.125Z" fill="#222222"/>
</svg>
