<svg width="35" height="35" viewBox="0 0 35 35" fill="none" xmlns="http://www.w3.org/2000/svg">
<path fill-rule="evenodd" clip-rule="evenodd" d="M21.1666 2.91663C22.3489 2.91663 23.3459 2.91663 24.1937 2.95273C23.9139 3.35646 23.75 3.84657 23.75 4.37496V6.24996L21.875 6.24996C20.4943 6.24996 19.375 7.36925 19.375 8.74996C19.375 10.1307 20.4943 11.25 21.875 11.25H23.75V13.125C23.75 14.5057 24.8693 15.625 26.25 15.625C27.6307 15.625 28.75 14.5057 28.75 13.125V11.25H29.1666V24.0833C29.1666 27.8545 29.1666 29.7401 27.9951 30.9117C26.8235 32.0833 24.9379 32.0833 21.1666 32.0833H13.8333C10.0621 32.0833 8.17646 32.0833 7.00489 30.9117C5.83331 29.7401 5.83331 27.8545 5.83331 24.0833V10.9166C5.83331 7.14539 5.83331 5.25977 7.00489 4.0882C8.17646 2.91663 10.0621 2.91663 13.8333 2.91663H21.1666ZM28.75 5.32379C28.847 5.60206 28.9214 5.90903 28.9785 6.24996H28.75V5.32379ZM11.6666 16.5C11.1144 16.5 10.6666 16.9477 10.6666 17.5C10.6666 18.0522 11.1144 18.5 11.6666 18.5H17.5C18.0523 18.5 18.5 18.0522 18.5 17.5C18.5 16.9477 18.0523 16.5 17.5 16.5H11.6666ZM11.6666 20.875C11.1144 20.875 10.6666 21.3227 10.6666 21.875C10.6666 22.4272 11.1144 22.875 11.6666 22.875L20.4166 22.875C20.9689 22.875 21.4166 22.4272 21.4166 21.875C21.4166 21.3227 20.9689 20.875 20.4166 20.875L11.6666 20.875ZM11.6666 25.25C11.1144 25.25 10.6666 25.6977 10.6666 26.25C10.6666 26.8022 11.1144 27.25 11.6666 27.25H17.5C18.0523 27.25 18.5 26.8022 18.5 26.25C18.5 25.6977 18.0523 25.25 17.5 25.25H11.6666Z" fill="#222222"/>
<path d="M26.25 4.375L26.25 13.125" stroke="#222222" stroke-width="2" stroke-linecap="round"/>
<path d="M30.625 8.75L21.875 8.75" stroke="#222222" stroke-width="2" stroke-linecap="round"/>
</svg>
