<svg width="120" height="120" viewBox="0 0 120 120" fill="none" xmlns="http://www.w3.org/2000/svg">
<g filter="url(#filter0_i_33_159)">
<path fill-rule="evenodd" clip-rule="evenodd" d="M72 30.9193V30.9V15H32.4C31.5599 15 31.1399 15 30.819 15.1635C30.5368 15.3073 30.3073 15.5368 30.1635 15.819C30 16.1399 30 16.5599 30 17.4V46H44.2047C44.3602 46 44.4439 46.0002 44.5065 46.0031C44.5336 46.0043 44.5478 46.0058 44.5535 46.0065C44.5712 46.0111 44.5882 46.0182 44.6041 46.0274C44.6085 46.0309 44.6196 46.0399 44.6397 46.0583C44.6859 46.1005 44.7453 46.1595 44.8552 46.2695L58.7305 60.1448L58.7724 60.1867C58.9361 60.3511 59.1215 60.5373 59.3476 60.6758C59.5444 60.7964 59.759 60.8853 59.9835 60.9392C60.2412 61.0011 60.5041 61.0006 60.736 61.0001L60.7953 61H90V33H74.1H74.0807C73.8172 33 73.5898 33 73.4025 32.9847C73.2048 32.9686 73.0082 32.9329 72.819 32.8365C72.5368 32.6927 72.3073 32.4632 72.1635 32.181C72.0671 31.9918 72.0314 31.7952 72.0153 31.5975C72 31.4103 72 31.1829 72 30.9194V30.9193V30.9193ZM73 30.9V15H74.3373C74.5818 15 74.7041 15 74.8192 15.0276C74.9213 15.0521 75.0188 15.0925 75.1083 15.1474C75.2092 15.2092 75.2957 15.2957 75.4686 15.4686L89.5314 29.5314L89.5314 29.5314L89.5316 29.5316C89.7044 29.7044 89.7908 29.7908 89.8526 29.8917C89.9075 29.9812 89.9479 30.0787 89.9724 30.1808C90 30.2959 90 30.4182 90 30.6627V32H74.1C73.8117 32 73.6256 31.9996 73.4839 31.988C73.3481 31.9769 73.2977 31.9581 73.273 31.9455C73.1789 31.8976 73.1024 31.8211 73.0545 31.727C73.0419 31.7023 73.0231 31.6519 73.012 31.5161C73.0004 31.3744 73 31.1883 73 30.9ZM45.0165 44.0608C44.7588 43.9989 44.496 43.9994 44.264 43.9999L60.2781 58.8632C60.3116 58.8961 60.3376 58.921 60.3603 58.9417C60.3804 58.9601 60.3915 58.9691 60.3959 58.9726L60.2781 58.8632C60.2434 58.8291 60.2006 58.7864 60.1448 58.7305L46.2695 44.8552L46.2276 44.8133C46.0639 44.6489 45.8785 44.4627 45.6524 44.3242C45.4556 44.2036 45.241 44.1147 45.0165 44.0608Z" fill="#0BC1FB" fill-opacity="0.2"/>
<path d="M15 47.4C15 46.5599 15 46.1399 15.1635 45.819C15.3073 45.5368 15.5368 45.3073 15.819 45.1635C16.1399 45 16.5599 45 17.4 45H44.2047C44.4982 45 44.645 45 44.7831 45.0332C44.9055 45.0626 45.0226 45.111 45.1299 45.1768C45.251 45.251 45.3548 45.3548 45.5624 45.5624L59.4376 59.4376C59.6452 59.6452 59.749 59.749 59.8701 59.8232C59.9774 59.889 60.0945 59.9374 60.2169 59.9668C60.355 60 60.5018 60 60.7953 60H102.6C103.44 60 103.86 60 104.181 60.1635C104.463 60.3073 104.693 60.5368 104.837 60.819C105 61.1399 105 61.5599 105 62.4V107.6C105 108.44 105 108.86 104.837 109.181C104.693 109.463 104.463 109.693 104.181 109.837C103.86 110 103.44 110 102.6 110H17.4C16.5599 110 16.1399 110 15.819 109.837C15.5368 109.693 15.3073 109.463 15.1635 109.181C15 108.86 15 108.44 15 107.6V47.4Z" fill="#0BC1FB"/>
</g>
<defs>
<filter id="filter0_i_33_159" x="0" y="0" width="120" height="124" filterUnits="userSpaceOnUse" color-interpolation-filters="sRGB">
<feFlood flood-opacity="0" result="BackgroundImageFix"/>
<feBlend mode="normal" in="SourceGraphic" in2="BackgroundImageFix" result="shape"/>
<feColorMatrix in="SourceAlpha" type="matrix" values="0 0 0 0 0 0 0 0 0 0 0 0 0 0 0 0 0 0 127 0" result="hardAlpha"/>
<feOffset dy="4"/>
<feGaussianBlur stdDeviation="2"/>
<feComposite in2="hardAlpha" operator="arithmetic" k2="-1" k3="1"/>
<feColorMatrix type="matrix" values="0 0 0 0 0 0 0 0 0 0 0 0 0 0 0 0 0 0 0.25 0"/>
<feBlend mode="normal" in2="shape" result="effect1_innerShadow_33_159"/>
</filter>
</defs>
</svg>
