<svg width="35" height="35" viewBox="0 0 35 35" fill="none" xmlns="http://www.w3.org/2000/svg">
<path fill-rule="evenodd" clip-rule="evenodd" d="M20.6458 7.89844L20.6458 7.87917V4.375H11.15C10.3099 4.375 9.88988 4.375 9.56901 4.53849C9.28677 4.6823 9.0573 4.91177 8.91349 5.19401C8.75 5.51488 8.75 5.93492 8.75 6.775V12.125H12.3297L12.389 12.1249H12.389C12.621 12.1244 12.8838 12.1239 13.1415 12.1858C13.366 12.2397 13.5806 12.3286 13.7774 12.4492C14.0035 12.5877 14.1889 12.7739 14.3526 12.9383L14.3526 12.9383L14.3945 12.9802L17.6448 16.2305C17.7547 16.3405 17.8141 16.3995 17.8603 16.4417C17.8804 16.4601 17.8915 16.4691 17.8959 16.4726C17.9118 16.4818 17.9288 16.4889 17.9465 16.4935C17.9522 16.4942 17.9664 16.4957 17.9935 16.4969C18.0561 16.4998 18.1398 16.5 18.2953 16.5H26.25V9.97917H22.7458L22.7266 9.97917C22.463 9.97918 22.2356 9.97918 22.0483 9.96388C21.8506 9.94773 21.654 9.91207 21.4648 9.81568C21.1826 9.67187 20.9531 9.44239 20.8093 9.16015C20.7129 8.97096 20.6773 8.77435 20.6611 8.57668C20.6458 8.3894 20.6458 8.16203 20.6458 7.89846V7.89845V7.89844ZM25.8293 18.5H18.2953L18.236 18.5001H18.236C18.004 18.5006 17.7412 18.5011 17.4835 18.4392C17.259 18.3853 17.0444 18.2964 16.8476 18.1758C16.6215 18.0373 16.4361 17.8511 16.2724 17.6867L16.2305 17.6448L12.9802 14.3945C12.8703 14.2845 12.8109 14.2255 12.7647 14.1833C12.7446 14.1649 12.7335 14.1559 12.7291 14.1524C12.7132 14.1432 12.6962 14.1361 12.6785 14.1315C12.6728 14.1308 12.6586 14.1293 12.6315 14.1281C12.5689 14.1252 12.4852 14.125 12.3297 14.125H8.75V16.5583C8.75 17.3984 8.75 17.8185 8.91349 18.1393C9.0573 18.4216 9.28677 18.651 9.56901 18.7948C9.88988 18.9583 10.3099 18.9583 11.15 18.9583H23.85C24.6901 18.9583 25.1101 18.9583 25.431 18.7948C25.5801 18.7189 25.7145 18.619 25.8293 18.5ZM21.6458 7.87916V4.39269C21.6623 4.39553 21.6783 4.39881 21.6942 4.40263C21.7963 4.42713 21.8938 4.46753 21.9833 4.52236C22.0842 4.5842 22.1707 4.67068 22.3436 4.84363L25.7814 8.28137C25.9543 8.45432 26.0408 8.5408 26.1026 8.64171C26.1575 8.73119 26.1979 8.82873 26.2224 8.93077C26.2262 8.94666 26.2295 8.96269 26.2323 8.97917H22.7458C22.4576 8.97917 22.2714 8.97878 22.1298 8.9672C21.9939 8.9561 21.9436 8.93727 21.9188 8.92467C21.8248 8.87673 21.7483 8.80024 21.7003 8.70616C21.6877 8.68144 21.6689 8.63108 21.6578 8.49525C21.6462 8.35358 21.6458 8.16744 21.6458 7.87916Z" fill="#7E869E" fill-opacity="0.25"/>
<path d="M4.375 15.525C4.375 14.6849 4.375 14.2649 4.53849 13.944C4.6823 13.6618 4.91177 13.4323 5.19401 13.2885C5.51488 13.125 5.93492 13.125 6.775 13.125H12.3297C12.6232 13.125 12.77 13.125 12.9081 13.1582C13.0305 13.1876 13.1476 13.236 13.2549 13.3018C13.376 13.376 13.4798 13.4798 13.6874 13.6874L16.9376 16.9376C17.1452 17.1452 17.249 17.249 17.3701 17.3232C17.4774 17.389 17.5945 17.4374 17.7169 17.4668C17.855 17.5 18.0018 17.5 18.2953 17.5H28.225C29.0651 17.5 29.4851 17.5 29.806 17.6635C30.0882 17.8073 30.3177 18.0368 30.4615 18.319C30.625 18.6399 30.625 19.0599 30.625 19.9V29.6833C30.625 30.5234 30.625 30.9435 30.4615 31.2643C30.3177 31.5466 30.0882 31.776 29.806 31.9198C29.4851 32.0833 29.0651 32.0833 28.225 32.0833H6.775C5.93492 32.0833 5.51488 32.0833 5.19401 31.9198C4.91177 31.776 4.6823 31.5466 4.53849 31.2643C4.375 30.9435 4.375 30.5234 4.375 29.6833V15.525Z" fill="#33363F"/>
</svg>
