<svg width="80" height="100" viewBox="0 0 80 100" fill="none" xmlns="http://www.w3.org/2000/svg">
<path fill-rule="evenodd" clip-rule="evenodd" d="M44 0V33L44 33.0544C43.9999 33.4785 43.9998 33.8906 44.0455 34.2305C44.0971 34.6137 44.2226 35.051 44.5858 35.4142C44.949 35.7774 45.3863 35.9029 45.7695 35.9545C46.1094 36.0002 46.5215 36.0001 46.9456 36L47 36H80V70C80 84.1421 80 91.2132 75.6066 95.6066C71.2132 100 64.1421 100 50 100H30C15.8579 100 8.7868 100 4.3934 95.6066C0 91.2132 0 84.1421 0 70V30C0 15.8579 0 8.7868 4.3934 4.3934C8.7868 0 15.8579 0 30 0H44ZM46 0V33C46 33.4997 46.0021 33.7738 46.0277 33.964L46.0287 33.9713L46.036 33.9723C46.2262 33.9979 46.5003 34 47 34H80V33.2843C80 29.1968 80 27.153 79.2388 25.3153C78.4776 23.4776 77.0324 22.0324 74.1421 19.1421L60.8579 5.85786C57.9676 2.96756 56.5224 1.52241 54.6847 0.761205C52.847 0 50.8032 0 46.7157 0H46ZM24 55C24 54.4477 24.4477 54 25 54H55C55.5523 54 56 54.4477 56 55C56 55.5523 55.5523 56 55 56H25C24.4477 56 24 55.5523 24 55ZM25 74C24.4477 74 24 74.4477 24 75C24 75.5523 24.4477 76 25 76H45C45.5523 76 46 75.5523 46 75C46 74.4477 45.5523 74 45 74H25Z" fill="#F03A71"/>
</svg>
