<svg width="80" height="100" viewBox="0 0 80 100" fill="none" xmlns="http://www.w3.org/2000/svg">
<path fill-rule="evenodd" clip-rule="evenodd" d="M0 8C0 4.22876 0 2.34315 1.17157 1.17157C2.34315 0 4.22876 0 8 0H72C75.7712 0 77.6569 0 78.8284 1.17157C80 2.34315 80 4.22876 80 8V17.5H72.5V5C72.5 3.61929 71.3807 2.5 70 2.5C68.6193 2.5 67.5 3.61929 67.5 5V17.5H55C53.6193 17.5 52.5 18.6193 52.5 20C52.5 21.3807 53.6193 22.5 55 22.5H67.5V35C67.5 36.3807 68.6193 37.5 70 37.5C71.3807 37.5 72.5 36.3807 72.5 35V22.5H80V92C80 95.7712 80 97.6569 78.8284 98.8284C77.6569 100 75.7712 100 72 100H8C4.22876 100 2.34315 100 1.17157 98.8284C0 97.6569 0 95.7712 0 92V8ZM20 49C19.4477 49 19 49.4477 19 50C19 50.5523 19.4477 51 20 51H40C40.5523 51 41 50.5523 41 50C41 49.4477 40.5523 49 40 49H20ZM20 64C19.4477 64 19 64.4477 19 65C19 65.5523 19.4477 66 20 66L50 66C50.5523 66 51 65.5523 51 65C51 64.4477 50.5523 64 50 64L20 64ZM20 79C19.4477 79 19 79.4477 19 80C19 80.5523 19.4477 81 20 81H40C40.5523 81 41 80.5523 41 80C41 79.4477 40.5523 79 40 79H20Z" fill="#9752C2"/>
</svg>
