<svg width="120" height="120" viewBox="0 0 120 120" fill="none" xmlns="http://www.w3.org/2000/svg">
<g filter="url(#filter0_i_87_158)">
<path d="M12.75 59.25C13.144 59.5454 13.5923 59.7604 14.0693 59.8826C14.5464 60.0049 15.0428 60.0319 15.5303 59.9623C16.0178 59.8926 16.4869 59.7276 16.9106 59.4767C17.3343 59.2258 17.7045 58.8939 18 58.5C20.2705 55.4727 23.2146 53.0156 26.5992 51.3233C29.9838 49.631 33.7159 48.75 37.5 48.75C41.2841 48.75 45.0162 49.631 48.4008 51.3233C51.7854 53.0156 54.7295 55.4727 57 58.5C57.5974 59.2949 58.4861 59.82 59.4707 59.9597C60.4552 60.0995 61.4549 59.8425 62.25 59.2453C62.5334 59.0345 62.7845 58.7834 62.9953 58.5C65.2658 55.4727 68.2099 53.0156 71.5945 51.3233C74.9791 49.631 78.7112 48.75 82.4953 48.75C86.2794 48.75 90.0115 49.631 93.3961 51.3233C96.7807 53.0156 99.7249 55.4727 101.995 58.5C102.593 59.2956 103.482 59.8214 104.467 59.9616C105.452 60.1018 106.452 59.845 107.248 59.2476C108.043 58.6503 108.569 57.7613 108.709 56.7763C108.849 55.7913 108.593 54.7909 107.995 53.9953C104.676 49.5453 100.25 46.0417 95.1563 43.8328C97.9485 41.2834 99.9049 37.9495 100.768 34.2684C101.632 30.5873 101.363 26.7312 99.9954 23.206C98.6282 19.6808 96.2272 16.6514 93.1075 14.5151C89.9878 12.3789 86.2951 11.2358 82.5141 11.2358C78.7331 11.2358 75.0404 12.3789 71.9207 14.5151C68.8009 16.6514 66.3999 19.6808 65.0328 23.206C63.6656 26.7312 63.3961 30.5873 64.2597 34.2684C65.1233 37.9495 67.0796 41.2834 69.8719 43.8328C66.1943 45.423 62.8534 47.6996 60.0281 50.5406C57.2028 47.6996 53.862 45.423 50.1844 43.8328C52.9767 41.2834 54.933 37.9495 55.7966 34.2684C56.6602 30.5873 56.3907 26.7312 55.0235 23.206C53.6563 19.6808 51.2553 16.6514 48.1356 14.5151C45.0159 12.3789 41.3232 11.2358 37.5422 11.2358C33.7612 11.2358 30.0685 12.3789 26.9488 14.5151C23.8291 16.6514 21.4281 19.6808 20.0609 23.206C18.6937 26.7312 18.4242 30.5873 19.2878 34.2684C20.1514 37.9495 22.1077 41.2834 24.9 43.8328C19.7843 46.0345 15.3361 49.5403 12 54C11.7045 54.3939 11.4895 54.8422 11.3673 55.3193C11.2451 55.7963 11.218 56.2928 11.2877 56.7803C11.3573 57.2678 11.5223 57.7368 11.7732 58.1606C12.0241 58.5843 12.356 58.9545 12.75 59.25ZM82.5 18.75C84.725 18.75 86.9001 19.4098 88.7502 20.6459C90.6002 21.8821 92.0422 23.6391 92.8937 25.6948C93.7451 27.7504 93.9679 30.0124 93.5338 32.1947C93.0998 34.377 92.0283 36.3816 90.455 37.9549C88.8816 39.5283 86.8771 40.5997 84.6948 41.0338C82.5125 41.4679 80.2505 41.2451 78.1948 40.3936C76.1391 39.5421 74.3821 38.1002 73.146 36.2501C71.9098 34.4001 71.25 32.225 71.25 30C71.25 27.0163 72.4353 24.1548 74.5451 22.045C76.6548 19.9352 79.5163 18.75 82.5 18.75ZM37.5 18.75C39.725 18.75 41.9001 19.4098 43.7502 20.6459C45.6002 21.8821 47.0422 23.6391 47.8936 25.6948C48.7451 27.7504 48.9679 30.0124 48.5338 32.1947C48.0998 34.377 47.0283 36.3816 45.455 37.9549C43.8816 39.5283 41.8771 40.5997 39.6948 41.0338C37.5125 41.4679 35.2505 41.2451 33.1948 40.3936C31.1391 39.5421 29.3821 38.1002 28.146 36.2501C26.9098 34.4001 26.25 32.225 26.25 30C26.25 27.0163 27.4353 24.1548 29.5451 22.045C31.6548 19.9352 34.5163 18.75 37.5 18.75ZM95.1563 92.5828C97.9485 90.0334 99.9049 86.6995 100.768 83.0184C101.632 79.3373 101.363 75.4812 99.9954 71.956C98.6282 68.4308 96.2272 65.4014 93.1075 63.2652C89.9878 61.129 86.2951 59.9858 82.5141 59.9858C78.7331 59.9858 75.0404 61.129 71.9207 63.2652C68.8009 65.4014 66.3999 68.4308 65.0328 71.956C63.6656 75.4812 63.3961 79.3373 64.2597 83.0184C65.1233 86.6995 67.0796 90.0334 69.8719 92.5828C66.1943 94.173 62.8534 96.4496 60.0281 99.2906C57.2028 96.4496 53.862 94.173 50.1844 92.5828C52.9767 90.0334 54.933 86.6995 55.7966 83.0184C56.6602 79.3373 56.3907 75.4812 55.0235 71.956C53.6563 68.4308 51.2553 65.4014 48.1356 63.2652C45.0159 61.129 41.3232 59.9858 37.5422 59.9858C33.7612 59.9858 30.0685 61.129 26.9488 63.2652C23.8291 65.4014 21.4281 68.4308 20.0609 71.956C18.6937 75.4812 18.4242 79.3373 19.2878 83.0184C20.1514 86.6995 22.1077 90.0334 24.9 92.5828C19.7843 94.7845 15.3361 98.2903 12 102.75C11.7045 103.144 11.4895 103.592 11.3673 104.069C11.2451 104.546 11.218 105.043 11.2877 105.53C11.3573 106.018 11.5223 106.487 11.7732 106.911C12.0241 107.334 12.356 107.704 12.75 108C13.144 108.295 13.5923 108.51 14.0693 108.633C14.5464 108.755 15.0428 108.782 15.5303 108.712C16.0178 108.643 16.4869 108.478 16.9106 108.227C17.3343 107.976 17.7045 107.644 18 107.25C20.2705 104.223 23.2146 101.766 26.5992 100.073C29.9838 98.381 33.7159 97.5 37.5 97.5C41.2841 97.5 45.0162 98.381 48.4008 100.073C51.7854 101.766 54.7295 104.223 57 107.25C57.5974 108.045 58.4861 108.57 59.4707 108.71C60.4552 108.85 61.4549 108.593 62.25 107.995C62.5334 107.784 62.7845 107.533 62.9953 107.25C65.2658 104.223 68.2099 101.766 71.5945 100.073C74.9791 98.381 78.7112 97.5 82.4953 97.5C86.2794 97.5 90.0115 98.381 93.3961 100.073C96.7807 101.766 99.7249 104.223 101.995 107.25C102.593 108.046 103.482 108.571 104.467 108.712C105.452 108.852 106.452 108.595 107.248 107.998C108.043 107.4 108.569 106.511 108.709 105.526C108.849 104.541 108.593 103.541 107.995 102.745C104.676 98.2953 100.25 94.7917 95.1563 92.5828ZM37.5 67.5C39.725 67.5 41.9001 68.1598 43.7502 69.3959C45.6002 70.6321 47.0422 72.3891 47.8936 74.4448C48.7451 76.5004 48.9679 78.7624 48.5338 80.9447C48.0998 83.127 47.0283 85.1316 45.455 86.7049C43.8816 88.2783 41.8771 89.3497 39.6948 89.7838C37.5125 90.2179 35.2505 89.9951 33.1948 89.1436C31.1391 88.2921 29.3821 86.8502 28.146 85.0001C26.9098 83.1501 26.25 80.975 26.25 78.75C26.25 75.7663 27.4353 72.9048 29.5451 70.795C31.6548 68.6852 34.5163 67.5 37.5 67.5ZM82.5 67.5C84.725 67.5 86.9001 68.1598 88.7502 69.3959C90.6002 70.6321 92.0422 72.3891 92.8937 74.4448C93.7451 76.5004 93.9679 78.7624 93.5338 80.9447C93.0998 83.127 92.0283 85.1316 90.455 86.7049C88.8816 88.2783 86.8771 89.3497 84.6948 89.7838C82.5125 90.2179 80.2505 89.9951 78.1948 89.1436C76.1391 88.2921 74.3821 86.8502 73.146 85.0001C71.9098 83.1501 71.25 80.975 71.25 78.75C71.25 75.7663 72.4353 72.9048 74.5451 70.795C76.6548 68.6852 79.5163 67.5 82.5 67.5Z" fill="#C35608"/>
</g>
<defs>
<filter id="filter0_i_87_158" x="0" y="0" width="120" height="124" filterUnits="userSpaceOnUse" color-interpolation-filters="sRGB">
<feFlood flood-opacity="0" result="BackgroundImageFix"/>
<feBlend mode="normal" in="SourceGraphic" in2="BackgroundImageFix" result="shape"/>
<feColorMatrix in="SourceAlpha" type="matrix" values="0 0 0 0 0 0 0 0 0 0 0 0 0 0 0 0 0 0 127 0" result="hardAlpha"/>
<feOffset dy="4"/>
<feGaussianBlur stdDeviation="2"/>
<feComposite in2="hardAlpha" operator="arithmetic" k2="-1" k3="1"/>
<feColorMatrix type="matrix" values="0 0 0 0 0 0 0 0 0 0 0 0 0 0 0 0 0 0 0.25 0"/>
<feBlend mode="normal" in2="shape" result="effect1_innerShadow_87_158"/>
</filter>
</defs>
</svg>
